<svg xmlns="http://www.w3.org/2000/svg" viewBox="0 0 1600 760" preserveAspectRatio="xMidYMid slice">
  <defs>
    <linearGradient id="bg" x1="0" y1="0" x2="1" y2="1">
      <stop offset="0" stop-color="#07182c"/>
      <stop offset="0.55" stop-color="#0d3450"/>
      <stop offset="1" stop-color="#0a5360"/>
    </linearGradient>
    <radialGradient id="glow" cx="75%" cy="30%" r="55%">
      <stop offset="0" stop-color="#35c5c8" stop-opacity=".35"/>
      <stop offset="1" stop-color="#35c5c8" stop-opacity="0"/>
    </radialGradient>
    <pattern id="grid" width="70" height="70" patternUnits="userSpaceOnUse">
      <path d="M70 0H0v70" fill="none" stroke="#fff" stroke-opacity=".045" stroke-width="1"/>
    </pattern>
  </defs>
  <rect width="1600" height="760" fill="url(#bg)"/>
  <rect width="1600" height="760" fill="url(#glow)"/>
  <rect width="1600" height="760" fill="url(#grid)"/>
  <g fill="none" stroke="#66d9d8" stroke-opacity=".34" stroke-width="2">
    <path d="M1020 110 1160 195 1300 110 1440 195 1300 280 1160 195 1020 280 880 195Z"/>
    <path d="M1160 195v170l140 85 140-85V195M1020 280v170l140 85 140-85V280"/>
    <path d="M880 195v170l140 85"/>
    <path d="M1300 110v170M1440 195v170"/>
  </g>
  <g fill="#f1a33c">
    <circle cx="1020" cy="110" r="7"/><circle cx="1160" cy="195" r="7"/><circle cx="1300" cy="110" r="7"/>
    <circle cx="1440" cy="195" r="7"/><circle cx="1300" cy="280" r="7"/><circle cx="1020" cy="280" r="7"/>
  </g>
  <g fill="#66d9d8">
    <circle cx="880" cy="195" r="7"/><circle cx="1160" cy="365" r="7"/><circle cx="1300" cy="450" r="7"/>
    <circle cx="1440" cy="365" r="7"/><circle cx="1020" cy="450" r="7"/><circle cx="1160" cy="535" r="7"/>
  </g>
  <path d="M0 650C260 570 410 700 670 625c245-71 430-34 600 15 115 33 220 35 330-5v125H0Z" fill="#07182c" fill-opacity=".72"/>
</svg>
